<svg aria-hidden="true" style="position: absolute; width: 0; height: 0; overflow: hidden;" version="1.1" xmlns="http://www.w3.org/2000/svg" xmlns:xlink="http://www.w3.org/1999/xlink">
<defs>
<symbol id="icon-price" viewBox="0 0 32 32">
<path d="M26.681 19.402l-7.392 7.39c-0.338 0.336-0.805 0.544-1.32 0.544s-0.981-0.208-1.32-0.544l-10.577-10.577c-0.761-0.846-1.244-1.955-1.298-3.176l-0-0.011 0.072-6.2c0.019-1.035 0.854-1.869 1.888-1.886l0.002-0 6.181-0.059c1.232 0.057 2.34 0.541 3.191 1.306l-0.005-0.004 10.577 10.577c0.336 0.338 0.544 0.805 0.544 1.32s-0.208 0.981-0.544 1.32l0-0zM9.812 8.645c0-0.737-0.597-1.334-1.334-1.334s-1.334 0.597-1.334 1.334c0 0.737 0.597 1.334 1.334 1.334v0c0.737 0 1.334-0.597 1.334-1.334v0zM20.918 21.021c0.169-0.169 0.274-0.402 0.274-0.66s-0.105-0.491-0.274-0.66v0l-0.675-0.675c0.265-0.4 0.469-0.868 0.584-1.369l0.006-0.029c0.057-0.204 0.090-0.439 0.090-0.681 0-0.721-0.289-1.374-0.759-1.85l0 0c-0.443-0.442-1.041-0.729-1.705-0.774l-0.008-0c-0.069-0.005-0.15-0.007-0.232-0.007-0.368 0-0.722 0.055-1.057 0.157l0.026-0.007h-0.003c-0.379 0.121-0.708 0.279-1.009 0.476l0.016-0.010h-0.005c-0.277 0.182-0.519 0.38-0.737 0.601l-0 0c-0.132 0.132-0.274 0.254-0.426 0.364l-0.010 0.007c-0.159 0.115-0.343 0.212-0.539 0.282l-0.015 0.005h-0.003c-0.131 0.044-0.282 0.070-0.438 0.070-0.046 0-0.092-0.002-0.137-0.007l0.006 0h-0.003c-0.205-0.017-0.388-0.101-0.53-0.23l0.001 0.001c-0.142-0.159-0.229-0.371-0.229-0.602 0-0.106 0.018-0.209 0.052-0.303l-0.002 0.006c0.125-0.471 0.366-0.876 0.69-1.195l0-0c0.114-0.099 0.241-0.19 0.375-0.271l0.012-0.007 0.051-0.032c0.155-0.097 0.334-0.185 0.522-0.254l0.021-0.007c0.162-0.063 0.35-0.1 0.547-0.101h0.001c0.515 0 0.933-0.418 0.933-0.933s-0.418-0.933-0.933-0.933h-0.002c-0.434 0.002-0.849 0.083-1.231 0.23l0.024-0.008c-0.342 0.127-0.636 0.275-0.91 0.449l0.019-0.012-0.017 0.010-0.67-0.674c-0.169-0.169-0.402-0.273-0.66-0.273-0.516 0-0.934 0.418-0.934 0.934 0 0.258 0.105 0.492 0.274 0.661v0l0.653 0.652c-0.259 0.387-0.46 0.839-0.578 1.323l-0.006 0.029c-0.059 0.213-0.093 0.457-0.093 0.71 0 0.746 0.295 1.422 0.774 1.92l-0.001-0.001c0.433 0.424 1.006 0.705 1.644 0.767l0.011 0.001c0.099 0.011 0.214 0.017 0.33 0.017 0.367 0 0.72-0.061 1.048-0.174l-0.023 0.007c0.401-0.137 0.749-0.319 1.063-0.545l-0.012 0.008c0.249-0.179 0.468-0.367 0.67-0.571l0-0c0.128-0.129 0.269-0.244 0.421-0.344l0.010-0.006c0.155-0.101 0.333-0.187 0.523-0.25l0.016-0.005c0.143-0.043 0.307-0.067 0.477-0.067 0.038 0 0.076 0.001 0.114 0.004l-0.005-0c0.203 0.014 0.384 0.101 0.519 0.234l-0-0c0.084 0.083 0.278 0.278 0.163 0.822-0.123 0.484-0.366 0.899-0.695 1.228l-0 0c-0.141 0.128-0.295 0.249-0.457 0.36l-0.015 0.009c-0.148 0.097-0.317 0.186-0.496 0.257l-0.020 0.007c-0.123 0.049-0.266 0.077-0.416 0.077-0.043 0-0.086-0.002-0.128-0.007l0.005 0c-0.020-0.002-0.044-0.002-0.067-0.002-0.516 0-0.934 0.418-0.934 0.934 0 0.492 0.381 0.895 0.863 0.931l0.003 0c0.088 0.007 0.173 0.008 0.256 0.008 0.009 0 0.020 0 0.031 0 0.405 0 0.791-0.083 1.141-0.233l-0.019 0.007c0.327-0.133 0.608-0.285 0.869-0.465l-0.015 0.010 0.017-0.012 0.669 0.67c0.169 0.168 0.402 0.272 0.659 0.272s0.49-0.104 0.659-0.272l-0 0z"></path>
</symbol>
<symbol id="icon-filter" viewBox="0 0 32 32">
<path d="M27.867 5.333h-13.4c-0.601-1.552-2.070-2.639-3.797-2.667l-0.003-0c-1.716 0.017-3.172 1.112-3.725 2.639l-0.009 0.028h-2.8c-0.020-0.001-0.044-0.002-0.068-0.002-0.75 0-1.363 0.59-1.398 1.332l-0 0.003c0.036 0.745 0.648 1.335 1.398 1.335 0.024 0 0.048-0.001 0.072-0.002l-0.003 0h2.8c0.561 1.555 2.017 2.65 3.731 2.667l0.002 0c1.73-0.028 3.199-1.114 3.79-2.638l0.010-0.028h13.4c0.020 0.001 0.044 0.002 0.068 0.002 0.75 0 1.363-0.59 1.398-1.332l0-0.003c-0.036-0.745-0.648-1.335-1.398-1.335-0.024 0-0.048 0.001-0.072 0.002l0.003-0zM10.667 8c-0.736 0-1.333-0.597-1.333-1.333s0.597-1.333 1.333-1.333c0.736 0 1.333 0.597 1.333 1.333v0c0 0.736-0.597 1.333-1.333 1.333v0z"></path>
<path d="M27.867 14.667h-2.733c-0.601-1.552-2.070-2.639-3.797-2.667l-0.003-0c-1.716 0.017-3.172 1.112-3.725 2.639l-0.009 0.028h-13.467c-0.736 0-1.333 0.597-1.333 1.333s0.597 1.333 1.333 1.333v0h13.467c0.561 1.555 2.017 2.65 3.731 2.667l0.002 0c1.73-0.028 3.199-1.114 3.79-2.638l0.010-0.028h2.733c0.736 0 1.333-0.597 1.333-1.333s-0.597-1.333-1.333-1.333v0zM21.333 17.333c-0.736 0-1.333-0.597-1.333-1.333s0.597-1.333 1.333-1.333c0.736 0 1.333 0.597 1.333 1.333v0c0 0.736-0.597 1.333-1.333 1.333v0z"></path>
<path d="M27.867 24h-11.4c-0.601-1.552-2.070-2.639-3.797-2.667l-0.003-0c-1.716 0.017-3.172 1.112-3.725 2.639l-0.009 0.028h-4.8c-0.736 0-1.333 0.597-1.333 1.333s0.597 1.333 1.333 1.333v0h4.8c0.561 1.555 2.017 2.65 3.731 2.667l0.002 0c1.73-0.028 3.199-1.114 3.79-2.638l0.010-0.028h11.4c0.736 0 1.333-0.597 1.333-1.333s-0.597-1.333-1.333-1.333v0zM12.667 26.667c-0.736 0-1.333-0.597-1.333-1.333s0.597-1.333 1.333-1.333c0.736 0 1.333 0.597 1.333 1.333v0c0 0.736-0.597 1.333-1.333 1.333v0z"></path>
</symbol>
<symbol id="icon-buy" viewBox="0 0 32 32">
<path d="M26.044 9h-4.044v-1.748c0-3.285-2.532-6.15-5.815-6.249-3.398-0.102-6.185 2.622-6.185 5.997v2h-4.044c-0.535 0-0.975 0.421-0.999 0.955l-0.814 17.909c-0.078 1.708 1.286 3.136 2.996 3.136h17.721c1.71 0 3.075-1.428 2.997-3.136l-0.814-17.909c-0.024-0.534-0.464-0.955-0.999-0.955zM11 7c0-2.757 2.243-5 5-5s5 2.243 5 5v2h-1v-2c0-2.206-1.794-4-4-4s-4 1.794-4 4v2h-1v-2zM19 9h-6v-2c0-1.657 1.343-3 3-3s3 1.343 3 3v2zM5.142 27.909l0.814-17.909h20.089l0.814 17.909c0.051 1.139-0.858 2.091-1.998 2.091h-17.722c-1.14 0-2.049-0.952-1.997-2.091z"></path>
</symbol>
</defs>
</svg>
